<?xml version="1.0" standalone="no"?>
<!DOCTYPE svg PUBLIC "-//W3C//DTD SVG 20010904//EN"
 "http://www.w3.org/TR/2001/REC-SVG-20010904/DTD/svg10.dtd">
<svg version="1.0" xmlns="http://www.w3.org/2000/svg"
 width="195.000000pt" height="195.000000pt" viewBox="0 0 195.000000 195.000000"
 preserveAspectRatio="xMidYMid meet">

<g transform="translate(0.000000,195.000000) scale(0.100000,-0.100000)"
fill="#000000" stroke="none">
<path d="M1800 1620 c-36 -15 -227 -94 -425 -175 -1041 -427 -1280 -527 -1298
-543 -11 -9 -29 -36 -39 -60 -16 -35 -17 -49 -9 -75 10 -30 122 -147 288 -300
l62 -57 71 0 71 0 -173 152 c-95 84 -186 165 -202 179 -37 32 -31 71 14 94 27
14 428 159 1290 467 246 88 302 113 353 158 34 30 69 96 82 158 8 40 2 40 -85
2z"/>
<path d="M1120 1124 c-344 -112 -695 -227 -780 -255 -85 -28 -161 -57 -169
-64 -17 -17 -7 -49 23 -69 22 -14 36 -12 200 32 112 30 176 52 178 61 2 9 167
57 508 147 278 73 515 138 527 143 36 16 100 79 126 124 33 57 42 87 25 86 -7
0 -294 -93 -638 -205z"/>
<path d="M1130 944 c-261 -68 -563 -147 -670 -174 -107 -28 -201 -53 -209 -56
-11 -3 -4 -15 23 -43 l37 -37 207 38 c158 30 211 43 222 58 12 14 85 31 355
80 187 34 354 69 370 77 56 28 95 64 135 123 33 49 37 60 23 59 -10 0 -232
-56 -493 -125z"/>
<path d="M895 722 c-297 -58 -542 -107 -544 -109 -6 -4 50 -62 72 -74 11 -7
97 0 261 21 134 16 246 30 250 30 3 0 6 7 6 15 0 8 1 15 3 15 35 0 346 53 369
63 48 20 164 150 131 146 -5 0 -251 -48 -548 -107z"/>
<path d="M720 544 c-135 -18 -249 -33 -255 -33 -5 -1 13 -23 40 -51 l49 -50
336 0 335 0 -115 76 c-63 41 -122 78 -130 83 -8 4 -125 -7 -260 -25z"/>
<path d="M553 381 c-107 -27 -145 -121 -77 -192 61 -64 211 -64 276 1 51 51
32 142 -37 174 -42 20 -118 28 -162 17z m101 -62 c33 -26 35 -73 4 -106 -56
-60 -142 12 -103 86 23 46 57 53 99 20z"/>
<path d="M1600 355 c0 -18 5 -25 20 -25 27 0 25 -9 -12 -74 -24 -42 -38 -56
-55 -56 -18 0 -23 -6 -23 -25 0 -24 2 -25 75 -25 69 0 75 2 75 21 0 12 -8 23
-20 26 -36 10 -10 23 45 23 55 0 81 -13 45 -23 -12 -3 -20 -14 -20 -26 0 -20
5 -21 95 -21 95 0 95 0 95 25 0 19 -5 25 -23 25 -18 0 -32 17 -70 90 l-48 90
-90 0 c-88 0 -89 0 -89 -25z m124 -60 c4 -10 -1 -15 -14 -15 -20 0 -26 11 -13
23 10 11 20 8 27 -8z"/>
<path d="M50 349 c0 -12 8 -23 20 -26 17 -5 20 -14 20 -64 0 -52 -2 -59 -20
-59 -15 0 -20 -7 -20 -25 0 -25 1 -25 85 -25 84 0 85 0 85 25 0 18 -5 25 -20
25 -13 0 -20 7 -20 20 0 18 7 20 60 20 53 0 60 -2 60 -20 0 -13 -7 -20 -20
-20 -15 0 -20 -7 -20 -25 0 -25 1 -25 85 -25 84 0 85 0 85 25 0 19 -5 25 -20
25 -19 0 -21 5 -18 63 3 53 6 62 21 59 12 -2 17 4 17 23 0 25 -1 25 -85 25
-78 0 -85 -2 -85 -20 0 -13 7 -20 20 -20 13 0 20 -7 20 -20 0 -18 -7 -20 -60
-20 -53 0 -60 2 -60 20 0 13 7 20 20 20 13 0 20 7 20 20 0 18 -7 20 -85 20
-80 0 -85 -1 -85 -21z"/>
<path d="M790 350 c0 -13 7 -20 20 -20 18 0 20 -7 20 -70 0 -63 -2 -70 -20
-70 -13 0 -20 -7 -20 -20 0 -18 7 -20 70 -20 63 0 70 2 70 20 0 13 -7 20 -20
20 -18 0 -20 7 -20 62 l0 63 33 -46 c18 -25 44 -62 57 -82 24 -36 27 -37 88
-37 l62 0 0 90 c0 83 1 90 20 90 13 0 20 7 20 20 0 18 -7 20 -65 20 -57 0 -65
-2 -65 -19 0 -10 9 -21 20 -24 17 -4 20 -14 20 -56 0 -28 -2 -51 -4 -51 -3 0
-29 34 -57 75 l-53 75 -88 0 c-81 0 -88 -2 -88 -20z"/>
<path d="M1190 349 c0 -12 8 -23 20 -26 17 -5 20 -14 20 -64 0 -52 -2 -59 -20
-59 -15 0 -20 -7 -20 -25 l0 -25 131 0 c135 0 161 6 191 44 23 28 23 104 0
132 -32 38 -56 44 -191 44 -126 0 -131 -1 -131 -21z m242 -49 c40 -50 6 -100
-67 -100 l-45 0 0 58 c0 32 3 62 7 66 15 15 87 -2 105 -24z"/>
</g>
</svg>
