<?xml version="1.0" standalone="no"?>
<!DOCTYPE svg PUBLIC "-//W3C//DTD SVG 20010904//EN"
 "http://www.w3.org/TR/2001/REC-SVG-20010904/DTD/svg10.dtd">
<svg version="1.0" xmlns="http://www.w3.org/2000/svg"
 width="195.000000pt" height="195.000000pt" viewBox="0 0 195.000000 195.000000"
 preserveAspectRatio="xMidYMid meet">

<g transform="translate(0.000000,195.000000) scale(0.100000,-0.100000)"
fill="#000000" stroke="none">
<path d="M810 1935 c-243 -41 -494 -198 -625 -391 -224 -329 -244 -718 -53
-1050 98 -171 191 -264 362 -362 142 -82 326 -132 481 -132 253 0 532 120 708
305 163 171 267 432 267 670 0 306 -165 628 -405 790 -231 156 -479 213 -735
170z m202 -77 l24 -73 70 -11 c140 -22 238 -62 339 -136 154 -114 250 -246
307 -423 20 -62 23 -90 23 -240 0 -149 -3 -179 -23 -240 -12 -38 -27 -80 -34
-93 -11 -20 -7 -27 35 -70 45 -46 61 -82 35 -82 -7 0 -39 6 -71 14 l-58 14
-107 -107 c-88 -87 -123 -114 -197 -152 -125 -65 -228 -89 -380 -89 -251 0
-433 81 -607 270 l-73 79 -55 -14 c-30 -8 -63 -15 -72 -15 -31 0 -20 33 29 82
l46 47 -16 38 c-47 111 -52 143 -52 318 0 150 3 178 23 240 47 144 107 239
218 346 134 127 245 183 423 212 l75 13 24 72 c14 40 30 72 37 72 7 0 23 -33
37 -72z"/>
<path d="M960 1870 c-18 -67 -50 -172 -61 -198 -13 -33 -11 -58 6 -72 10 -8
15 -30 15 -61 0 -42 -4 -53 -31 -76 -46 -41 -59 -74 -59 -148 0 -42 -4 -65
-11 -65 -7 0 -91 45 -187 100 -132 76 -178 98 -184 88 -23 -34 -29 -51 -21
-58 4 -5 95 -58 201 -120 105 -61 193 -117 193 -123 1 -7 3 -23 4 -36 3 -28
-24 -58 -60 -67 -19 -5 -51 9 -147 66 -135 79 -172 101 -235 136 l-41 24 -20
-32 c-12 -18 -19 -35 -17 -38 2 -3 82 -50 179 -105 96 -55 175 -103 176 -107
0 -3 -20 -18 -44 -32 -52 -30 -96 -80 -96 -107 0 -58 -54 -112 -113 -114 -42
-1 -49 -6 -138 -99 -100 -105 -112 -121 -83 -113 11 3 77 18 147 34 123 27
129 29 143 60 18 37 62 58 106 49 101 -19 101 -19 170 16 49 25 69 31 72 22 3
-8 4 -100 3 -206 l-2 -193 43 -3 42 -3 0 235 0 235 29 20 c16 12 32 21 36 21
4 0 20 -9 36 -21 l29 -20 0 -235 0 -234 45 0 45 0 0 208 0 209 68 -35 c69 -35
69 -35 170 -16 44 9 88 -12 106 -49 14 -31 20 -33 143 -60 70 -16 136 -31 147
-34 29 -8 17 8 -83 113 -90 95 -96 99 -137 99 -56 1 -90 32 -110 101 -16 55
-54 98 -115 129 -25 13 -28 19 -18 31 6 8 16 14 20 14 5 0 38 17 72 39 34 21
106 64 160 96 94 54 98 58 84 78 -7 12 -17 28 -21 34 -8 15 -4 17 -247 -126
-86 -50 -161 -91 -168 -91 -7 0 -25 7 -41 15 -26 14 -30 21 -30 59 l0 44 193
112 c105 61 196 115 200 120 8 7 2 24 -21 58 -7 10 -50 -11 -176 -83 -92 -53
-174 -99 -182 -102 -11 -4 -14 5 -14 38 0 70 -19 119 -61 162 -33 34 -39 47
-39 82 0 23 7 50 15 61 20 27 19 34 -21 164 -51 167 -49 163 -64 110z m63
-488 c14 -12 17 -32 17 -103 l0 -87 -32 -21 c-32 -20 -33 -20 -63 -1 -29 19
-30 22 -33 106 -3 90 4 109 43 124 23 8 43 3 68 -18z m-13 -347 c26 -14 30
-21 30 -60 0 -40 -3 -45 -33 -60 -30 -14 -36 -14 -65 1 -29 14 -32 20 -32 59
0 38 4 46 28 59 34 19 37 19 72 1z m-231 -119 c43 -22 54 -42 47 -79 -5 -29
-17 -39 -82 -76 -68 -39 -78 -42 -104 -31 -15 6 -33 24 -40 39 -18 45 1 74 77
120 37 23 69 41 71 41 2 0 15 -6 31 -14z m491 -24 c76 -44 98 -78 80 -122 -6
-16 -25 -34 -41 -40 -26 -11 -35 -8 -104 31 -75 44 -75 44 -75 87 0 37 4 45
33 62 17 11 34 20 37 20 3 0 34 -17 70 -38z"/>
</g>
</svg>
